<?xml version="1.0" encoding="UTF-8" standalone="no"?>
<!-- Generator: Adobe Illustrator 22.1.0, SVG Export Plug-In . SVG Version: 6.00 Build 0)  -->

<svg
   version="1.1"
   id="Primer_plano"
   x="0px"
   y="0px"
   viewBox="0 0 716.70001 212.10001"
   xml:space="preserve"
   sodipodi:docname="new_uc3m_logo.svg"
   width="716.70001"
   height="212.10001"
   inkscape:version="1.4.2 (f4327f4, 2025-05-13)"
   xmlns:inkscape="http://www.inkscape.org/namespaces/inkscape"
   xmlns:sodipodi="http://sodipodi.sourceforge.net/DTD/sodipodi-0.dtd"
   xmlns="http://www.w3.org/2000/svg"
   xmlns:svg="http://www.w3.org/2000/svg"><defs
   id="defs28" /><sodipodi:namedview
   id="namedview28"
   pagecolor="#505050"
   bordercolor="#ffffff"
   borderopacity="1"
   inkscape:showpageshadow="0"
   inkscape:pageopacity="0"
   inkscape:pagecheckerboard="1"
   inkscape:deskcolor="#505050"
   inkscape:zoom="1.6223278"
   inkscape:cx="357.81918"
   inkscape:cy="103.24671"
   inkscape:window-width="1536"
   inkscape:window-height="841"
   inkscape:window-x="1912"
   inkscape:window-y="576"
   inkscape:window-maximized="1"
   inkscape:current-layer="Primer_plano" />
<style
   type="text/css"
   id="style1">
	.st0{fill:#000E78;}
	.st1{fill-rule:evenodd;clip-rule:evenodd;fill:#000E78;}
</style>
<g
   id="g28"
   transform="translate(-62.6,-48.3)">
	<path
   class="st0"
   d="m 462.3,165.9 c -4.1,4.3 -10.1,7.2 -16.5,7.2 -12.3,0 -22.2,-9.9 -22.2,-22.2 0,-12.3 9.9,-22.2 22.2,-22.2 6.5,0 12.4,2.8 16.4,7.2 l 0.1,-17.5 c -4.9,-2.5 -10.5,-3.9 -16.4,-3.9 -20.1,0 -36.4,16.3 -36.4,36.4 0,20.1 16.3,36.4 36.4,36.4 5.9,0 11.5,-1.4 16.4,-3.9 z"
   id="path1" />
	<path
   class="st1"
   d="m 511.3,183.6 c -4,2.5 -8.8,3.9 -13.9,3.9 -14.4,0 -26.1,-11.7 -26.1,-26.1 0,-14.4 11.7,-26.1 26.1,-26.1 5.1,0 9.9,1.5 13.9,4 v -4 h 12.3 v 52.3 h -12.3 z m -27.8,-22.3 c 0,-7.7 6.2,-14 14,-14 7.7,0 14,6.2 14,14 0,7.7 -6.2,14 -14,14 -7.8,0 -14,-6.3 -14,-14 z"
   id="path2" />
	<path
   class="st0"
   d="m 559.9,149.4 c -1.2,-0.7 -2.7,-1.1 -4.2,-1.1 -4.7,0 -8.6,3.8 -8.6,8.6 v 30.6 h -13.2 l 0.1,-52.4 h 13.1 l 0.1,3.2 c 3.1,-2 6.8,-3.2 10.7,-3.2 h 0.1 c 0.6,0 1.3,0 2,0.1 v 14.2 z"
   id="path3" />
	<path
   class="st1"
   d="m 588.1,161.3 c 0,-14.5 11.7,-26.2 26.2,-26.2 14.5,0 26.2,11.7 26.2,26.2 0,14.5 -11.7,26.2 -26.2,26.2 -14.4,0 -26.2,-11.8 -26.2,-26.2 z m 12.3,0 c 0,-7.7 6.2,-14 14,-14 7.7,0 14,6.2 14,14 0,7.7 -6.2,14 -14,14 -7.8,-0.1 -14,-6.3 -14,-14 z"
   id="path4" />
	<path
   class="st0"
   d="m 673.6,148.6 7,-7.1 c -3.9,-3.9 -9.3,-6.3 -15.3,-6.3 -2.1,0 -4.2,0.3 -6.1,0.9 -7.1,2.2 -12.4,8.7 -12.4,16.5 0,0.5 0,1 0.1,1.6 0.6,4.4 3.9,7.9 7.9,9.3 l 12.1,4.6 c 1.9,0.8 2.6,2.1 2.6,3.9 0,3.7 -4.3,4.8 -7.3,4.8 -4.6,0 -8.7,-2.1 -11.3,-5.6 L 644,178 c 4.4,5.7 11.2,9.4 19,9.4 4.7,0 9,-1.3 12.6,-3.6 4.3,-2.8 7.1,-7.6 7.1,-13 0,-6.4 -3.8,-11.9 -9.4,-14.2 l -9.1,-3.4 c -1.8,-0.6 -3.1,-1.9 -3.1,-3.9 0,-2.3 1.9,-4.3 4.2,-4.3 3.3,0 6.2,1.4 8.3,3.6 z"
   id="path5" />
	<rect
   x="567.90002"
   y="114.6"
   class="st1"
   width="13.1"
   height="72.900002"
   id="rect5" />
	<rect
   x="353.29999"
   y="48.5"
   class="st1"
   width="6.6999998"
   height="211.39999"
   id="rect6" />
	<g
   id="g9">
		<path
   class="st0"
   d="m 153.2,152.3 c -3,-2.9 -7,-4.6 -11.4,-4.6 -7.3,0 -13.2,5.9 -13.2,13.2 0,7.3 5.9,13.2 13.2,13.2 4.5,0 8.5,-1.8 11.4,-4.7 v 15.2 c -3.5,1.7 -7.4,2.6 -11.4,2.6 -14.6,0 -26.4,-11.8 -26.4,-26.4 0,-14.6 11.8,-26.4 26.4,-26.4 4.1,0 8,0.9 11.4,2.6 z"
   id="path6" />
		<path
   class="st1"
   d="m 95.5,134.4 v 29.8 c 0,5.5 -4.4,9.9 -9.9,9.9 -5.5,0 -9.9,-4.4 -9.9,-9.9 V 134.4 H 62.6 v 29.8 c 0,12.8 10.3,23.1 23.1,23.1 12.8,0 23.1,-10.3 23.1,-23.1 v -29.8 z"
   id="path7" />
		<path
   class="st1"
   d="m 186.3,127.8 -7.6,19.8 h 9.2 -0.2 c 7.3,0 13.2,5.9 13.2,13.2 0,7.3 -5.9,13.2 -13.2,13.2 -7.3,0 -13.2,-5.9 -13.2,-13.2 h -13.1 c 0,14.6 11.8,26.3 26.4,26.3 14.6,0 26.4,-11.8 26.4,-26.4 0,-11.3 -7,-20.9 -17,-24.6 l 8.4,-21.8 -40.8,0.1 v 13.2 z"
   id="path8" />
		<path
   class="st1"
   d="m 265.3,142.1 c -3.9,-4.7 -9.8,-7.7 -16.4,-7.7 -4.3,0 -8.3,1.3 -11.7,3.5 v -3.5 H 224 v 52.8 h 13.2 l 0.1,-29.8 c 0,-5.5 4.4,-9.9 9.9,-9.9 5.5,0 9.9,4.5 9.9,9.9 v 29.7 h 13.2 v -29.8 c 0,-5.5 4.4,-9.9 9.9,-9.9 5.5,0 9.9,4.4 9.9,9.9 v 29.8 h 13.2 v -31.5 c 0,-11.8 -9.6,-21.4 -21.5,-21.4 -6.6,0.2 -12.5,3.2 -16.5,7.9 z"
   id="path9" />
	</g>
	<g
   id="g11">
		<rect
   x="706.40002"
   y="114.4"
   class="st1"
   width="15.9"
   height="72.900002"
   id="rect9" />
		<rect
   x="763.40002"
   y="114.4"
   class="st1"
   width="15.9"
   height="72.900002"
   id="rect10" />
		<rect
   x="734.90002"
   y="114.4"
   class="st1"
   width="15.9"
   height="72.900002"
   id="rect11" />
	</g>
	<g
   id="g12">
		<path
   class="st1"
   d="M 409.2,80.9 V 48.5 h 5.4 v 32.4 c 0,8.3 6.8,15.1 15.1,15.1 C 438,96 445,89.2 445,80.9 V 48.5 h 5.4 v 32.4 c 0,11.3 -9.2,20.5 -20.6,20.5 -11.4,0.1 -20.6,-9.1 -20.6,-20.5 z"
   id="path11" />
	</g>
	<g
   id="g13">
		<path
   class="st1"
   d="m 463.2,78.6 c 0,-5.5 4.4,-10 9.9,-10 5.5,0 10,4.5 10,10 v 22.9 h 5.4 V 78.2 c 0,-8.3 -6.8,-15 -15.1,-15 -4,0 -7.7,1.7 -10.4,4.3 v -4.3 h -5.4 v 38.3 h 5.4 z"
   id="path12" />
	</g>
	<path
   class="st1"
   d="m 494.5,63.1 h 5.4 v 38.4 h -5.4 z m -0.9,-10.9 c 0,-2 1.6,-3.6 3.6,-3.6 2,0 3.6,1.6 3.6,3.6 0,2 -1.6,3.6 -3.6,3.6 -2,0 -3.6,-1.6 -3.6,-3.6 z"
   id="path13" />
	<g
   id="g14">
		<polygon
   class="st1"
   points="511,62.6 523.8,89.1 536.4,62.6 542.5,62.6 523.9,101.5 504.9,62.6 "
   id="polygon13" />
	</g>
	<path
   class="st1"
   d="m 572.8,92.2 c -2.5,2.4 -5.9,3.9 -9.6,3.9 -6.7,0 -12.3,-4.8 -13.5,-11.1 h 32.6 c 0.1,-0.9 0.2,-1.8 0.2,-2.7 0,-10.6 -8.6,-19.3 -19.3,-19.3 -10.6,0 -19.3,8.6 -19.3,19.3 0,10.7 8.6,19.3 19.3,19.3 5.3,0 10.1,-2.1 13.6,-5.5 z M 549.6,79.5 c 1.3,-6.3 6.8,-11.1 13.5,-11.1 6.7,0 12.2,4.7 13.5,11 z"
   id="path14" />
	<g
   id="g15">
		<path
   class="st1"
   d="m 607.4,63.5 c -1,-0.2 -2.1,-0.4 -3.2,-0.4 -4,0 -7.7,1.7 -10.4,4.3 v -4.3 h -5.4 v 38.3 h 5.4 V 78.5 c 0,-5.5 4.4,-10 9.9,-10 1.3,0 2.6,0.2 3.7,0.7 z"
   id="path15" />
	</g>
	<path
   class="st1"
   d="m 729.2,95.6 c -3.5,3.6 -8.5,5.9 -13.9,5.9 -10.6,0 -19.3,-8.6 -19.3,-19.3 0,-10.7 8.7,-19.2 19.3,-19.2 5.5,0 10.4,2.3 13.9,5.9 V 63 h 5.5 v 38.2 h -5.5 z M 701.5,82.2 c 0,-7.6 6.2,-13.8 13.8,-13.8 7.6,0 13.8,6.2 13.8,13.8 0,7.6 -6.2,13.8 -13.8,13.8 -7.6,0 -13.8,-6.1 -13.8,-13.8 z"
   id="path16" />
	<path
   class="st1"
   d="m 641.1,63.1 h 5.4 v 38.4 h -5.4 z m -0.9,-10.9 c 0,-2 1.6,-3.6 3.6,-3.6 2,0 3.6,1.6 3.6,3.6 0,2 -1.6,3.6 -3.6,3.6 -2,0 -3.6,-1.6 -3.6,-3.6 z"
   id="path17" />
	<path
   class="st1"
   d="m 773.2,95.6 c -3.5,3.6 -8.5,5.9 -13.9,5.9 -10.6,0 -19.3,-8.6 -19.3,-19.3 0,-10.7 8.6,-19.2 19.3,-19.2 5.5,0 10.4,2.3 13.9,5.9 V 48.3 h 5.5 v 52.8 h -5.5 z M 745.5,82.2 c 0,-7.6 6.2,-13.8 13.8,-13.8 7.6,0 13.8,6.2 13.8,13.8 0,7.6 -6.2,13.8 -13.8,13.8 -7.6,0 -13.8,-6.1 -13.8,-13.8 z"
   id="path18" />
	<path
   class="st1"
   d="m 685.3,95.6 c -3.5,3.6 -8.5,5.9 -13.9,5.9 -10.6,0 -19.3,-8.6 -19.3,-19.3 0,-10.7 8.6,-19.2 19.3,-19.2 5.5,0 10.4,2.3 13.9,5.9 V 48.3 h 5.5 v 52.8 h -5.5 z M 657.5,82.2 c 0,-7.6 6.2,-13.8 13.8,-13.8 7.6,0 13.8,6.2 13.8,13.8 0,7.6 -6.2,13.8 -13.8,13.8 -7.6,0 -13.8,-6.1 -13.8,-13.8 z"
   id="path19" />
	<g
   id="g20">
		<path
   class="st1"
   d="m 618,72.7 c -0.2,-2.6 2,-4.5 4.5,-4.5 3.1,0.1 5.3,1.8 6.4,4.1 l 4.4,-2.5 c -2.3,-4.5 -6,-6.9 -10.4,-6.9 -5.8,0 -10.5,4.1 -10.7,9.9 0,5 3,7 7,9.2 l 7.8,4.2 c 1.9,1.3 2.7,2.3 2.7,4.6 -0.1,2.7 -2.7,5.3 -6.1,5.3 -3.9,0 -6.4,-2.2 -8.1,-5.4 l -5,2.5 c 2,5.5 7.2,8.4 12.5,8.4 6.6,0 12.3,-4.9 12.5,-11.6 0,-5.7 -4.1,-8.3 -8.3,-10.4 -4.4,-2.5 -9.2,-4.4 -9.2,-6.9 z"
   id="path20" />
	</g>
	<path
   class="st1"
   d="m 442.4,254.2 c -3.5,3.6 -8.5,5.9 -13.9,5.9 -10.6,0 -19.3,-8.6 -19.3,-19.3 0,-10.6 8.6,-19.3 19.3,-19.3 5.5,0 10.4,2.3 13.9,5.9 v -20.5 h 5.5 v 52.8 h -5.5 z m -27.7,-13.4 c 0,-7.6 6.2,-13.8 13.8,-13.8 7.6,0 13.8,6.2 13.8,13.8 0,7.6 -6.2,13.8 -13.8,13.8 -7.6,0 -13.8,-6.2 -13.8,-13.8 z"
   id="path21" />
	<path
   class="st1"
   d="m 485.5,250.7 c -2.5,2.4 -5.9,3.9 -9.6,3.9 -6.7,0 -12.3,-4.8 -13.5,-11.1 H 495 c 0.1,-0.9 0.2,-1.8 0.2,-2.7 0,-10.6 -8.6,-19.3 -19.3,-19.3 -10.6,0 -19.3,8.6 -19.3,19.3 0,10.6 8.6,19.3 19.3,19.3 5.3,0 10.1,-2.1 13.6,-5.5 z m -23.1,-12.6 c 1.3,-6.3 6.8,-11.1 13.5,-11.1 6.7,0 12.2,4.7 13.5,11 z"
   id="path22" />
	<path
   class="st1"
   d="m 631.8,254.2 c -3.5,3.6 -8.5,5.9 -13.9,5.9 -10.6,0 -19.3,-8.6 -19.3,-19.3 0,-10.6 8.6,-19.3 19.3,-19.3 5.5,0 10.4,2.3 13.9,5.9 v -5.9 h 5.5 v 38.2 h -5.5 z M 604,240.8 c 0,-7.6 6.2,-13.8 13.8,-13.8 7.6,0 13.8,6.2 13.8,13.8 0,7.6 -6.2,13.8 -13.8,13.8 -7.6,0 -13.8,-6.2 -13.8,-13.8 z"
   id="path23" />
	<path
   class="st1"
   d="m 679.1,254.2 c -3.5,3.6 -8.5,5.9 -13.9,5.9 -10.6,0 -19.3,-8.6 -19.3,-19.3 0,-10.6 8.6,-19.3 19.3,-19.3 5.5,0 10.4,2.3 13.9,5.9 v -20.5 h 5.5 v 52.8 h -5.5 z m -27.7,-13.4 c 0,-7.6 6.2,-13.8 13.8,-13.8 7.6,0 13.8,6.2 13.8,13.8 0,7.6 -6.2,13.8 -13.8,13.8 -7.6,0 -13.8,-6.2 -13.8,-13.8 z"
   id="path24" />
	<g
   id="g25">
		<path
   class="st1"
   d="m 715.3,222.1 c -1,-0.2 -2.1,-0.4 -3.2,-0.4 -4,0 -7.7,1.7 -10.4,4.3 v -4.3 h -5.4 V 260 h 5.4 v -22.9 c 0,-5.5 4.4,-10 9.9,-10 1.3,0 2.6,0.2 3.7,0.7 z"
   id="path25" />
	</g>
	<path
   class="st1"
   d="m 724.9,221.6 h 5.4 V 260 h -5.4 z M 724,210.7 c 0,-2 1.6,-3.6 3.6,-3.6 2,0 3.6,1.6 3.6,3.6 0,2 -1.6,3.6 -3.6,3.6 -2,0 -3.6,-1.6 -3.6,-3.6 z"
   id="path26" />
	<path
   class="st1"
   d="m 773.2,254.2 c -3.5,3.6 -8.5,5.9 -13.9,5.9 -10.6,0 -19.3,-8.6 -19.3,-19.3 0,-10.6 8.6,-19.3 19.3,-19.3 5.5,0 10.4,2.3 13.9,5.9 v -20.5 h 5.5 v 52.8 h -5.5 z m -27.8,-13.4 c 0,-7.6 6.2,-13.8 13.8,-13.8 7.6,0 13.8,6.2 13.8,13.8 0,7.6 -6.2,13.8 -13.8,13.8 -7.6,0 -13.8,-6.2 -13.8,-13.8 z"
   id="path27" />
	<g
   id="g27">
		<polygon
   class="st1"
   points="589.8,259.4 584.1,259.4 574.4,221.6 555.4,260.4 536.5,221.6 526.8,259.4 521.1,259.4 534.9,206 555.4,248 576,206 "
   id="polygon27" />
	</g>
</g>
</svg>
